<?xml version="1.0" standalone="no"?>
<!DOCTYPE svg PUBLIC "-//W3C//DTD SVG 20010904//EN"
 "http://www.w3.org/TR/2001/REC-SVG-20010904/DTD/svg10.dtd">
<svg version="1.0" xmlns="http://www.w3.org/2000/svg"
 width="512.000000pt" height="512.000000pt" viewBox="0 0 512.000000 512.000000"
 preserveAspectRatio="xMidYMid meet">

<g transform="translate(0.000000,512.000000) scale(0.100000,-0.100000)"
fill="#000000" stroke="none">
<path d="M0 2560 l0 -2560 2560 0 2560 0 0 2560 0 2560 -2560 0 -2560 0 0
-2560z m1648 1058 c3 -25 0 -28 -27 -28 -28 0 -31 3 -31 31 0 27 3 30 28 27
21 -2 28 -9 30 -30z m-78 -88 c0 -27 -3 -30 -30 -30 -27 0 -30 3 -30 30 0 27
3 30 30 30 27 0 30 -3 30 -30z m770 9 c25 -5 53 -12 63 -15 11 -4 17 0 17 10
0 14 35 16 308 16 275 0 317 -2 386 -20 195 -50 369 -190 459 -370 65 -131 81
-199 81 -345 0 -135 -15 -206 -68 -320 -85 -181 -233 -312 -431 -382 l-80 -28
-327 -3 c-302 -3 -328 -2 -328 13 0 14 -5 16 -27 10 -70 -19 -116 -24 -215
-25 l-108 0 0 195 0 195 90 0 c119 0 186 25 255 94 28 28 60 72 71 98 l19 48
194 0 194 0 -7 -51 c-16 -117 -81 -248 -179 -355 -59 -64 -170 -146 -226 -165
-17 -6 -31 -15 -31 -20 0 -16 555 -11 635 6 137 29 286 121 382 236 54 66 117
191 140 279 25 96 23 263 -5 363 -32 114 -46 137 -82 137 -25 0 -30 4 -30 25
0 16 6 25 15 25 12 0 13 3 3 19 -9 15 -19 18 -45 14 -31 -5 -33 -4 -33 26 0
17 5 31 12 31 7 0 -8 21 -32 46 -53 54 -180 136 -214 138 -13 0 -22 4 -20 7 2
4 -16 12 -41 18 -38 9 -49 9 -69 -5 -18 -11 -35 -13 -63 -8 -21 4 -52 7 -70 8
-18 0 -34 5 -37 12 -3 8 5 12 27 10 18 -1 43 1 57 5 14 4 -18 7 -75 6 -55 0
-92 -2 -82 -4 26 -7 20 -18 -10 -21 -15 -1 -32 -7 -37 -12 -6 -6 -19 -10 -29
-10 -12 0 -17 -5 -14 -14 12 -31 -16 -23 -72 21 -2 1 6 12 19 23 l23 20 -126
0 c-70 0 -127 -2 -127 -4 0 -2 35 -23 78 -47 53 -29 104 -69 163 -128 73 -73
93 -100 132 -181 41 -87 67 -166 67 -204 0 -14 -25 -16 -192 -16 l-193 1 -17
37 c-30 65 -85 119 -155 154 -63 31 -73 33 -200 36 l-133 4 0 -546 0 -546
-195 0 -195 0 0 376 0 375 -32 27 c-17 14 -40 26 -52 27 -16 0 -21 6 -21 25 0
32 40 42 49 12 4 -10 18 -29 31 -42 l25 -23 0 86 c0 64 -3 87 -13 87 -15 0
-103 87 -96 95 3 2 23 -13 44 -35 22 -22 45 -40 52 -40 10 0 13 52 13 250 l0
250 343 0 c193 0 362 -5 387 -11z m1210 -214 c0 -20 -5 -25 -25 -25 -20 0 -25
5 -25 25 0 20 5 25 25 25 20 0 25 -5 25 -25z m60 -70 c0 -20 -5 -25 -25 -25
-20 0 -25 5 -25 25 0 20 5 25 25 25 20 0 25 -5 25 -25z m-527 -88 c78 -35 141
-97 180 -176 30 -62 32 -72 32 -176 0 -106 -1 -112 -34 -173 -65 -119 -176
-193 -305 -200 -55 -4 -68 -2 -64 9 3 9 29 16 72 21 177 17 294 145 304 328 5
111 -20 182 -91 257 -60 63 -114 91 -209 107 -42 7 -74 18 -76 25 -8 24 126 8
191 -22z m-1613 -42 c0 -20 -5 -25 -25 -25 -20 0 -25 5 -25 25 0 20 5 25 25
25 20 0 25 -5 25 -25z m890 -160 c0 -32 -2 -35 -30 -35 -27 0 -30 3 -30 29 0
29 2 30 53 40 4 0 7 -15 7 -34z m675 -5 c0 -32 -3 -35 -32 -38 -32 -3 -33 -3
-33 38 0 41 1 41 33 38 29 -3 32 -6 32 -38z m-590 -40 l39 -40 203 0 c112 0
203 -4 203 -9 0 -10 -208 -21 -328 -17 l-83 3 -44 43 c-25 24 -45 48 -45 52 0
17 17 7 55 -32z m595 -141 c0 -26 -3 -29 -35 -29 -33 0 -35 2 -35 33 0 32 1
33 35 29 31 -4 35 -8 35 -33z m-150 11 c0 -6 -79 -10 -217 -10 l-217 0 -53
-52 c-29 -28 -56 -49 -60 -45 -4 4 18 32 47 62 l54 55 223 0 c142 0 223 -4
223 -10z m-590 -110 c0 -27 -3 -30 -30 -30 -27 0 -30 3 -30 30 0 27 3 30 30
30 27 0 30 -3 30 -30z m-620 -885 c0 -9 -7 -18 -16 -22 -18 -7 -39 11 -30 26
11 17 46 13 46 -4z m385 -5 c0 -8 -10 -16 -22 -18 -18 -3 -23 2 -23 18 0 16 5
21 23 18 12 -2 22 -10 22 -18z m440 0 c0 -8 -10 -16 -22 -18 -18 -3 -23 2 -23
18 0 16 5 21 23 18 12 -2 22 -10 22 -18z m383 -127 c-3 -124 -5 -148 -18 -148
-13 0 -15 24 -18 148 -2 143 -2 147 18 147 20 0 20 -4 18 -147z m-1388 109
c52 -26 83 -77 77 -129 -9 -88 -59 -124 -179 -131 l-77 -4 -3 108 c-2 60 -2
124 0 142 l3 32 72 0 c49 0 83 -6 107 -18z m824 4 c72 -30 100 -106 67 -180
-27 -62 -64 -80 -166 -80 l-80 -1 -3 138 -3 137 76 0 c42 0 90 -6 109 -14z
m-654 -156 c0 -91 -3 -110 -15 -110 -12 0 -15 18 -15 103 0 57 3 107 7 110 18
19 23 -2 23 -103z m214 95 c35 -19 36 -19 36 1 0 9 6 14 13 12 15 -6 22 -193
8 -231 -6 -14 -22 -34 -36 -43 -30 -19 -102 -22 -134 -5 -26 14 -30 47 -3 35
9 -4 38 -9 63 -12 52 -4 79 14 79 53 0 23 -1 23 -31 8 -114 -57 -206 110 -97
177 39 24 63 25 102 5z m616 -101 c0 -86 -3 -104 -15 -104 -12 0 -15 19 -15
110 0 93 2 109 15 104 12 -5 15 -27 15 -110z m110 96 c0 -20 0 -20 29 1 63 46
151 -5 151 -88 0 -55 -12 -78 -50 -98 -37 -19 -63 -19 -100 0 l-30 16 0 -51
c0 -38 -4 -50 -15 -50 -13 0 -15 23 -15 145 0 122 2 145 15 145 8 0 15 -9 15
-20z m523 -20 c72 -81 -13 -210 -115 -171 -85 32 -94 155 -14 196 44 22 95 13
129 -25z m256 16 c15 -14 19 -14 32 0 9 8 32 17 52 21 31 5 40 1 67 -25 30
-30 31 -34 28 -109 -2 -61 -6 -78 -18 -78 -12 0 -16 16 -18 77 -3 83 -13 101
-59 101 -44 0 -63 -34 -63 -114 0 -55 -3 -69 -15 -69 -12 0 -15 14 -15 65 0
102 -30 140 -90 112 -23 -11 -25 -19 -30 -92 -4 -66 -8 -80 -22 -83 -16 -3
-18 7 -18 102 0 85 3 106 14 106 8 0 16 -5 18 -12 3 -8 12 -7 29 6 28 20 82
16 108 -8z m381 9 c34 -18 43 -50 38 -139 -2 -36 -8 -61 -15 -64 -7 -2 -13 3
-13 11 0 14 -3 14 -31 0 -37 -19 -95 -10 -109 17 -27 51 0 84 78 95 42 6 52
10 52 26 0 27 -40 40 -82 28 -43 -12 -48 -12 -48 5 0 31 84 45 130 21z m-1710
-100 c0 -87 -3 -105 -15 -105 -12 0 -15 18 -15 105 0 87 3 105 15 105 12 0 15
-18 15 -105z m2802 -1265 c10 -17 31 -38 48 -48 16 -9 30 -19 30 -22 0 -3 -14
-13 -30 -22 -17 -10 -38 -31 -48 -48 -9 -16 -19 -30 -22 -30 -3 0 -13 14 -22
30 -10 17 -31 38 -48 48 -16 9 -30 19 -30 22 0 3 14 13 30 22 17 10 38 31 48
48 9 16 19 30 22 30 3 0 13 -14 22 -30z"/>
<path d="M1650 3286 c0 -185 3 -236 13 -236 7 0 42 -29 77 -65 l64 -65 83 0
83 0 0 141 0 141 153 -4 c139 -3 157 -6 209 -30 70 -33 149 -104 173 -158 l18
-40 169 0 c110 0 167 3 163 10 -3 6 -21 10 -39 10 -24 0 -41 10 -71 40 -29 30
-47 40 -71 40 -49 0 -63 52 -19 72 28 12 55 -2 55 -30 0 -29 81 -102 112 -102
15 0 28 2 28 5 0 2 -11 33 -24 69 -70 186 -221 332 -418 404 l-73 27 -342 3
-343 3 0 -235z"/>
<path d="M2661 3120 c-16 -9 -6 -30 15 -30 15 0 20 25 6 34 -4 2 -14 1 -21 -4z"/>
<path d="M1650 2945 l0 -85 160 0 c153 0 160 1 160 20 0 18 -7 20 -88 20 l-88
0 -64 65 c-35 36 -68 65 -72 65 -4 0 -8 -38 -8 -85z"/>
<path d="M1510 2910 c0 -5 7 -10 15 -10 8 0 15 5 15 10 0 6 -7 10 -15 10 -8 0
-15 -4 -15 -10z"/>
<path d="M1646 2803 c-3 -21 -6 -185 -6 -365 l0 -328 165 0 165 0 0 305 0 305
-58 0 c-50 0 -62 -4 -83 -26 -13 -14 -33 -30 -44 -35 -11 -5 -28 -15 -37 -21
-14 -10 -21 -10 -34 4 -9 9 -14 24 -11 32 7 17 57 22 57 6 0 -20 27 -9 60 25
31 32 39 35 92 35 51 0 58 2 58 20 0 19 -7 20 -101 20 -77 0 -104 -4 -116 -15
-18 -18 -32 -16 -47 8 -8 13 -7 21 6 33 15 16 19 16 51 0 37 -17 85 -20 161
-10 36 5 46 11 46 25 0 18 -11 19 -159 19 l-158 0 -7 -37z"/>
<path d="M1720 2785 c0 -8 5 -15 10 -15 6 0 10 7 10 15 0 8 -4 15 -10 15 -5 0
-10 -7 -10 -15z"/>
<path d="M1720 2665 c0 -9 5 -15 11 -13 6 2 11 8 11 13 0 5 -5 11 -11 13 -6 2
-11 -4 -11 -13z"/>
<path d="M2511 2645 c-19 -54 -104 -140 -169 -171 -46 -22 -75 -29 -149 -32
l-93 -4 0 -164 0 -164 98 0 c187 0 335 62 467 194 99 100 162 213 190 344 l7
32 -169 0 -169 0 -13 -35z"/>
<path d="M1350 1655 l0 -105 66 0 c59 0 68 3 95 29 23 24 29 38 29 73 -1 72
-44 108 -132 108 l-58 0 0 -105z"/>
<path d="M2180 1656 l0 -106 64 0 c84 0 115 24 123 91 5 41 2 50 -25 80 -27
30 -36 33 -96 37 l-66 4 0 -106z"/>
<path d="M1820 1693 c-71 -26 -66 -115 7 -137 22 -7 62 8 75 28 18 26 8 75
-18 95 -27 21 -38 24 -64 14z"/>
<path d="M2654 1689 c-43 -22 -56 -82 -25 -120 42 -52 131 -17 131 51 0 54
-59 92 -106 69z"/>
<path d="M3020 1687 c-49 -25 -52 -102 -5 -133 60 -39 133 27 105 96 -7 17
-24 36 -37 41 -31 11 -33 11 -63 -4z"/>
<path d="M3674 1596 c-41 -31 26 -73 76 -46 12 6 20 21 20 35 0 22 -4 25 -38
25 -21 0 -47 -6 -58 -14z"/>
</g>
</svg>
